<svg xmlns="http://www.w3.org/2000/svg" viewBox="0 0 1600 900" width="1600" height="900">
    
  <defs>
    <linearGradient id="ledBgGrad" x1="0%" y1="0%" x2="100%" y2="100%">
      <stop offset="0%" stop-color="#050811" />
      <stop offset="50%" stop-color="#090d1a" />
      <stop offset="100%" stop-color="#04060d" />
    </linearGradient>

    <linearGradient id="goldGrad" x1="0%" y1="0%" x2="100%" y2="0%">
      <stop offset="0%" stop-color="#ffe885" />
      <stop offset="100%" stop-color="#ffd700" />
    </linearGradient>

    <linearGradient id="goldBtnGrad" x1="0%" y1="0%" x2="100%" y2="0%">
      <stop offset="0%" stop-color="#ffd700" />
      <stop offset="100%" stop-color="#ffb700" />
    </linearGradient>

    <linearGradient id="cardBgGrad" x1="0%" y1="0%" x2="0%" y2="100%">
      <stop offset="0%" stop-color="#111827" stop-opacity="0.9" />
      <stop offset="100%" stop-color="#090d16" stop-opacity="0.95" />
    </linearGradient>

    <linearGradient id="phoneCardGrad" x1="0%" y1="0%" x2="0%" y2="100%">
      <stop offset="0%" stop-color="#121a2d" />
      <stop offset="100%" stop-color="#0a0f1d" />
    </linearGradient>

    <filter id="ledShadow" x="-10%" y="-10%" width="120%" height="120%">
      <feDropShadow dx="0" dy="8" stdDeviation="16" flood-color="#000000" flood-opacity="0.7"/>
    </filter>

    <filter id="goldGlow" x="-20%" y="-20%" width="140%" height="140%">
      <feGaussianBlur stdDeviation="10" result="blur" />
      <feComposite in="SourceGraphic" in2="blur" operator="over" />
    </filter>
  </defs>

  <style>
    @import url('https://fonts.googleapis.com/css2?family=Plus+Jakarta+Sans:wght@400;500;600;700;800;900&amp;display=swap');
    * { font-family: 'Plus Jakarta Sans', system-ui, -apple-system, sans-serif; }
    .txt-gold { fill: url(#goldGrad); font-weight: 800; }
    .txt-white { fill: #ffffff; font-weight: 700; }
    .txt-sub { fill: #94a3b8; font-size: 13px; font-weight: 500; }
    .txt-muted { fill: #64748b; font-size: 11px; font-weight: 600; }
  </style>

    <rect width="1600" height="900" fill="url(#ledBgGrad)" />

    <!-- LEFT PANEL -->
    <g transform="translate(80, 100)">
      <rect width="420" height="700" rx="20" fill="url(#cardBgGrad)" stroke="rgba(255,215,0,0.2)" stroke-width="1.5" filter="url(#ledShadow)"/>
      <rect x="30" y="30" width="150" height="26" rx="6" fill="#ffd700" fill-opacity="0.15"/>
      <text x="42" y="47" font-size="11" font-weight="900" fill="#ffd700">BUDGET CONTROLS</text>

      <text x="30" y="100" font-size="28" font-weight="900" fill="#ffffff">CATEGORY BUDGETS</text>
      <text x="30" y="130" font-size="14" font-weight="600" fill="#ffd700">EXPENDITURE THRESHOLDS</text>

      <text x="30" y="165" font-size="12" font-weight="400" fill="#94a3b8" text-anchor="start"><tspan x="30" >Category monthly budget limits, real-time</tspan><tspan x="30" dy="20">spending progress bars, threshold alerts, and</tspan><tspan x="30" dy="20">automated budget recommendations.</tspan></text>

      <line x1="30" y1="240" x2="390" y2="240" stroke="rgba(255,255,255,0.1)"/>

      <g transform="translate(30, 270)">
        <text x="0" y="0" font-size="11" font-weight="800" fill="#64748b">OVERALL BUDGET UTILIZATION</text>
        <text x="0" y="32" font-size="28" font-weight="900" fill="#10b981">22.4% Used</text>
      </g>
    </g>

    <!-- CENTER PHONE (ledger-budgets) -->
    <g transform="translate(595, 30)">
      <rect x="0" y="0" width="410" height="840" rx="40" fill="#070b14" stroke="#ffd700" stroke-width="3" filter="url(#ledShadow)"/>
      <rect x="6" y="6" width="398" height="828" rx="34" fill="#090d18"/>

      
    <!-- Top Phone Status Bar -->
    <g transform="translate(0, 12)">
      <text x="24" y="16" font-size="11" font-weight="700" fill="#ffffff">6:56</text>
      <!-- Status Icons -->
      <path d="M380 12 h12 v8 h-12 z" fill="#ffffff" opacity="0.8"/>
      <circle cx="360" cy="16" r="4" fill="#ffffff" opacity="0.8"/>
      <path d="M335 12 l8 10 h-16 z" fill="#ffffff" opacity="0.8"/>
    </g>

    <!-- App Header Bar -->
    <g transform="translate(16, 36)">
      <!-- Logo Square -->
      <rect x="0" y="0" width="36" height="36" rx="10" fill="#ffd700" />
      <text x="11" y="24" font-size="18" font-weight="900" fill="#050811">c</text>

      <!-- Title & 24K Badge -->
      <text x="46" y="24" font-size="20" font-weight="900" fill="#ffffff" letter-spacing="0.5">Ledger</text>
      <rect x="122" y="8" width="32" height="18" rx="4" fill="#ffd700" />
      <text x="126" y="21" font-size="10" font-weight="900" fill="#050811">24K</text>

      <!-- Sparkle Icon -->
      <circle cx="170" cy="17" r="14" fill="#ffd700" fill-opacity="0.15" stroke="#ffd700" stroke-width="1"/>
      <text x="165" y="22" font-size="12" fill="#ffd700">✨</text>

      <!-- Currency Pill -->
      <rect x="196" y="6" width="68" height="22" rx="11" fill="#1e293b" stroke="rgba(255,255,255,0.1)"/>
      <text x="206" y="21" font-size="10" font-weight="800" fill="#ffffff">AED</text>

      <!-- Cloud Sync -->
      <text x="278" y="22" font-size="14" fill="#94a3b8">☁</text>

      <!-- Notification Bell with badge -->
      <g transform="translate(305, 4)">
        <text x="0" y="18" font-size="15" fill="#ffffff">🔔</text>
        <circle cx="12" cy="4" r="7" fill="#ef4444"/>
        <text x="9" y="7" font-size="9" font-weight="800" fill="#ffffff">2</text>
      </g>

      <!-- User Avatar -->
      <circle cx="348" cy="17" r="14" fill="#334155" stroke="#ffd700" stroke-width="1.5"/>
      <text x="343" y="21" font-size="12" fill="#ffffff">👤</text>
    </g>
  

      <!-- PHONE SCREEN CONTENT -->
      <g transform="translate(16, 90)">
        <text x="0" y="24" font-size="18" font-weight="900" fill="#ffffff">Category Monthly Budgets</text>

        <g transform="translate(240, 0)">
          <rect width="138" height="34" rx="10" fill="url(#goldBtnGrad)"/>
          <text x="69" y="21" font-size="10" font-weight="900" fill="#050811" text-anchor="middle">+ Add Budget</text>
        </g>

        <!-- Summary Banner -->
        <g transform="translate(0, 42)">
          <rect width="378" height="60" rx="12" fill="url(#phoneCardGrad)" stroke="rgba(255,215,0,0.2)"/>
          <text x="16" y="24" font-size="11" font-weight="700" fill="#ffffff">Total Budget Allocated</text>
          <text x="16" y="44" font-size="14" font-weight="900" fill="#ffd700">AED 6,000.00 / month</text>
          <text x="362" y="34" font-size="11" font-weight="800" fill="#10b981" text-anchor="end">AED 1,345.50 Spent</text>
        </g>

        <!-- Budgets List -->
        <g transform="translate(0, 115)">
          
      <g transform="translate(0, 0)">
        <rect width="378" height="84" rx="14" fill="url(#phoneCardGrad)" stroke="rgba(255,255,255,0.08)"/>
        <text x="16" y="28" font-size="14">🛒</text>
        <text x="40" y="27" font-size="12" font-weight="800" fill="#ffffff">Groceries &amp; Supermarket</text>
        <text x="362" y="27" font-size="11" font-weight="800" fill="#ffd700" text-anchor="end">42%</text>

        <!-- Progress Bar -->
        <rect x="16" y="40" width="346" height="8" rx="4" fill="#1e293b"/>
        <rect x="16" y="40" width="145" height="8" rx="4" fill="url(#goldGrad)"/>

        <text x="16" y="66" font-size="10" font-weight="600" fill="#94a3b8">Spent: AED 845.50</text>
        <text x="362" y="66" font-size="10" font-weight="600" fill="#64748b" text-anchor="end">Limit: AED 2,000.00</text>
      </g>
    
      <g transform="translate(0, 92)">
        <rect width="378" height="84" rx="14" fill="url(#phoneCardGrad)" stroke="rgba(255,255,255,0.08)"/>
        <text x="16" y="28" font-size="14">🍽</text>
        <text x="40" y="27" font-size="12" font-weight="800" fill="#ffffff">Dining &amp; Cafes</text>
        <text x="362" y="27" font-size="11" font-weight="800" fill="#ffd700" text-anchor="end">26%</text>

        <!-- Progress Bar -->
        <rect x="16" y="40" width="346" height="8" rx="4" fill="#1e293b"/>
        <rect x="16" y="40" width="90" height="8" rx="4" fill="url(#goldGrad)"/>

        <text x="16" y="66" font-size="10" font-weight="600" fill="#94a3b8">Spent: AED 320.00</text>
        <text x="362" y="66" font-size="10" font-weight="600" fill="#64748b" text-anchor="end">Limit: AED 1,200.00</text>
      </g>
    
      <g transform="translate(0, 184)">
        <rect width="378" height="84" rx="14" fill="url(#phoneCardGrad)" stroke="rgba(255,255,255,0.08)"/>
        <text x="16" y="28" font-size="14">🛍</text>
        <text x="40" y="27" font-size="12" font-weight="800" fill="#ffffff">Shopping &amp; Fashion</text>
        <text x="362" y="27" font-size="11" font-weight="800" fill="#ffd700" text-anchor="end">0%</text>

        <!-- Progress Bar -->
        <rect x="16" y="40" width="346" height="8" rx="4" fill="#1e293b"/>
        <rect x="16" y="40" width="10" height="8" rx="4" fill="url(#goldGrad)"/>

        <text x="16" y="66" font-size="10" font-weight="600" fill="#94a3b8">Spent: AED 0.00</text>
        <text x="362" y="66" font-size="10" font-weight="600" fill="#64748b" text-anchor="end">Limit: AED 1,500.00</text>
      </g>
    
      <g transform="translate(0, 276)">
        <rect width="378" height="84" rx="14" fill="url(#phoneCardGrad)" stroke="rgba(255,255,255,0.08)"/>
        <text x="16" y="28" font-size="14">⛽</text>
        <text x="40" y="27" font-size="12" font-weight="800" fill="#ffffff">Transport &amp; Fuel</text>
        <text x="362" y="27" font-size="11" font-weight="800" fill="#ffd700" text-anchor="end">22%</text>

        <!-- Progress Bar -->
        <rect x="16" y="40" width="346" height="8" rx="4" fill="#1e293b"/>
        <rect x="16" y="40" width="76" height="8" rx="4" fill="url(#goldGrad)"/>

        <text x="16" y="66" font-size="10" font-weight="600" fill="#94a3b8">Spent: AED 180.00</text>
        <text x="362" y="66" font-size="10" font-weight="600" fill="#64748b" text-anchor="end">Limit: AED 800.00</text>
      </g>
    
      <g transform="translate(0, 368)">
        <rect width="378" height="84" rx="14" fill="url(#phoneCardGrad)" stroke="rgba(255,255,255,0.08)"/>
        <text x="16" y="28" font-size="14">📺</text>
        <text x="40" y="27" font-size="12" font-weight="800" fill="#ffffff">Subscriptions &amp; Media</text>
        <text x="362" y="27" font-size="11" font-weight="800" fill="#ffd700" text-anchor="end">0%</text>

        <!-- Progress Bar -->
        <rect x="16" y="40" width="346" height="8" rx="4" fill="#1e293b"/>
        <rect x="16" y="40" width="10" height="8" rx="4" fill="url(#goldGrad)"/>

        <text x="16" y="66" font-size="10" font-weight="600" fill="#94a3b8">Spent: AED 0.00</text>
        <text x="362" y="66" font-size="10" font-weight="600" fill="#64748b" text-anchor="end">Limit: AED 500.00</text>
      </g>
    
        </g>
      </g>

      
    <g transform="translate(0, 765)">
      <rect x="0" y="0" width="410" height="75" fill="#070b14" stroke-top="#1e293b"/>
      
        <g transform="translate(20, 12)">
          <text x="22" y="14" font-size="14" text-anchor="middle" fill="#64748b">⊞</text>
          <text x="22" y="28" font-size="9" font-weight="600" text-anchor="middle" fill="#64748b">Home</text>
        </g>
      
        <g transform="translate(92, 12)">
          <text x="22" y="14" font-size="14" text-anchor="middle" fill="#64748b">▤</text>
          <text x="22" y="28" font-size="9" font-weight="600" text-anchor="middle" fill="#64748b">History</text>
        </g>
      
        <g transform="translate(164, 12)">
          <rect x="-6" y="-4" width="56" height="38" rx="10" fill="#ffd700" fill-opacity="0.2" stroke="#ffd700" stroke-width="1"/>
          <text x="22" y="14" font-size="14" text-anchor="middle" fill="#ffd700">◐</text>
          <text x="22" y="28" font-size="9" font-weight="800" text-anchor="middle" fill="#ffd700">Budgets</text>
        </g>
      
        <g transform="translate(236, 12)">
          <text x="22" y="14" font-size="14" text-anchor="middle" fill="#64748b">🐖</text>
          <text x="22" y="28" font-size="9" font-weight="600" text-anchor="middle" fill="#64748b">Goals</text>
        </g>
      
        <g transform="translate(308, 12)">
          <text x="22" y="14" font-size="14" text-anchor="middle" fill="#64748b">✨</text>
          <text x="22" y="28" font-size="9" font-weight="600" text-anchor="middle" fill="#64748b">AI Assist</text>
        </g>
      
    </g>
  
    </g>

    <!-- RIGHT PANEL -->
    <g transform="translate(1100, 100)">
      <rect width="420" height="700" rx="20" fill="url(#cardBgGrad)" stroke="rgba(255,215,0,0.2)" stroke-width="1.5" filter="url(#ledShadow)"/>
      <text x="30" y="40" font-size="11" font-weight="900" fill="#ffd700">BUDGET INTELLIGENCE</text>
      <text x="30" y="70" font-size="20" font-weight="800" fill="#ffffff">AUTOMATED ALERTS</text>

      <g transform="translate(30, 100)">
        <rect width="360" height="120" rx="12" fill="#070c18" stroke="rgba(255,255,255,0.1)"/>
        <text x="20" y="30" font-size="12" font-weight="800" fill="#ffd700">SMART SPENDING LIMITS</text>
        <text x="20" y="55" font-size="11" font-weight="400" fill="#94a3b8" text-anchor="start"><tspan x="20" >Automated warnings when category</tspan><tspan x="20" dy="18">expenditure reaches 80% threshold,</tspan><tspan x="20" dy="18">preventing budget overruns.</tspan></text>
      </g>
    </g>

  </svg>